<svg height="200px" width="200px" viewBox="0 0 512 512" xmlns="http://www.w3.org/2000/svg" transform="rotate(90)">
  <defs>
    <linearGradient id="redGradient" x1="0%" y1="0%" x2="100%" y2="0%">
      <stop offset="0%" stop-color="#8c5cff"/>
      <stop offset="100%" stop-color="#79c0ff"/>
    </linearGradient>
  </defs>
  <style>
    .st0 { fill: url(#redGradient); }
  </style>
  <path class="st0" d="M472.464,216.464h-99.822c-17.45,0-31.577-14.14-31.577-31.577
           c0-17.444,14.126-31.583,31.577-31.583h36.687
           c21.829,0,39.536-17.702,39.536-39.536
           c0-21.835-17.708-39.537-39.536-39.537H221.822
           c-21.848,0-39.543,17.702-39.543,39.537
           c0,21.835,17.695,39.536,39.543,39.536h36.674
           c17.444,0,31.583,14.139,31.583,31.583
           c0,17.437-14.139,31.577-31.583,31.577H39.536
           C17.708,216.464,0,234.171,0,256
           s17.708,39.536,39.536,39.536h85.676
           c17.438,0,31.577,14.14,31.577,31.577
           c0,17.444-14.139,31.583-31.577,31.583H89.656
           c-21.842,0-39.543,17.702-39.543,39.537
           c0,21.829,17.701,39.536,39.543,39.536h276.039
           c21.835,0,39.536-17.708,39.536-39.536
           c0-21.836-17.701-39.537-39.536-39.537H239.352
           c-17.444,0-31.589-14.139-31.589-31.583
           c0-17.437,14.145-31.577,31.589-31.577h233.112
           C494.292,295.536,512,277.829,512,256
           S494.292,216.464,472.464,216.464z"/>
</svg>
